<?xml version="1.0" encoding="windows-1252" standalone="no"?>
<svg xmlns="http://www.w3.org/2000/svg" xmlns:xlink="http://www.w3.org/1999/xlink" contentStyleType="text/css" height="926px" preserveAspectRatio="none" style="width:872px;height:926px;background:#FFFFFF;" version="1.1" viewBox="0 0 872 926" width="872px" zoomAndPan="magnify"><defs><filter height="300%" id="f20hfcyi5udyu" width="300%" x="-1" y="-1"><feGaussianBlur result="blurOut" stdDeviation="2.0"/><feColorMatrix in="blurOut" result="blurOut2" type="matrix" values="0 0 0 0 0 0 0 0 0 0 0 0 0 0 0 0 0 0 .4 0"/><feOffset dx="4.0" dy="4.0" in="blurOut2" result="blurOut3"/><feBlend in="SourceGraphic" in2="blurOut3" mode="normal"/></filter></defs><g><text fill="#000000" font-family="sans-serif" font-size="14" font-weight="bold" lengthAdjust="spacing" textLength="222" x="318.25" y="22.9951">TODOs app - Class Diagram</text><!--class App--><g id="elem_App"><rect codeLine="5" fill="#FEFECE" filter="url(#f20hfcyi5udyu)" height="178.375" id="App" style="stroke:#A80036;stroke-width:1.0;" width="216" x="90.5" y="142.2969"/><ellipse cx="179.25" cy="158.2969" fill="#ADD1B2" rx="11" ry="11" style="stroke:#A80036;stroke-width:1.0;"/><path d="M181.5938,153.9688 C180.6563,153.5313 180.0625,153.3906 179.1875,153.3906 C176.5625,153.3906 174.5625,155.4688 174.5625,158.1875 L174.5625,159.3125 C174.5625,161.8906 176.6719,163.7813 179.5625,163.7813 C180.7813,163.7813 181.9375,163.4844 182.6875,162.9375 C183.2656,162.5313 183.5938,162.0781 183.5938,161.6875 C183.5938,161.2344 183.2031,160.8438 182.7344,160.8438 C182.5156,160.8438 182.3125,160.9219 182.125,161.1094 C181.6719,161.5938 181.6719,161.5938 181.4844,161.6875 C181.0625,161.9531 180.375,162.0781 179.6094,162.0781 C177.5625,162.0781 176.2656,160.9844 176.2656,159.2813 L176.2656,158.1875 C176.2656,156.4063 177.5156,155.0938 179.25,155.0938 C179.8281,155.0938 180.4375,155.25 180.9063,155.5 C181.3906,155.7813 181.5625,156 181.6563,156.4063 C181.7188,156.8125 181.75,156.9375 181.8906,157.0625 C182.0313,157.2031 182.2656,157.3125 182.4844,157.3125 C182.75,157.3125 183.0156,157.1719 183.1875,156.9531 C183.2969,156.7969 183.3281,156.6094 183.3281,156.1875 L183.3281,154.7656 C183.3281,154.3281 183.3125,154.2031 183.2188,154.0469 C183.0625,153.7813 182.7813,153.6406 182.4844,153.6406 C182.1875,153.6406 181.9844,153.7344 181.7656,154.0469 L181.5938,153.9688 Z " fill="#000000"/><text fill="#000000" font-family="sans-serif" font-size="14" lengthAdjust="spacing" textLength="30" x="199.75" y="163.1436">App</text><line style="stroke:#A80036;stroke-width:1.0;" x1="91.5" x2="305.5" y1="174.2969" y2="174.2969"/><rect fill="none" height="6" style="stroke:#C82930;stroke-width:1.0;" width="6" x="98.5" y="184.9453"/><text fill="#000000" font-family="sans-serif" font-size="14" lengthAdjust="spacing" textLength="190" x="110.5" y="191.292">TaskManager taskManager</text><line style="stroke:#A80036;stroke-width:1.0;" x1="91.5" x2="305.5" y1="198.5938" y2="198.5938"/><ellipse cx="101.5" cy="212.2422" fill="#84BE84" rx="3" ry="3" style="stroke:#038048;stroke-width:1.0;"/><text fill="#000000" font-family="sans-serif" font-size="14" lengthAdjust="spacing" textLength="79" x="110.5" y="215.5889">void main()</text><rect fill="#F24D5C" height="6" style="stroke:#C82930;stroke-width:1.0;" width="6" x="98.5" y="225.5391"/><text fill="#000000" font-family="sans-serif" font-size="14" lengthAdjust="spacing" textLength="132" x="110.5" y="231.8857">void displayMenu()</text><rect fill="#F24D5C" height="6" style="stroke:#C82930;stroke-width:1.0;" width="6" x="98.5" y="241.8359"/><text fill="#000000" font-family="sans-serif" font-size="14" lengthAdjust="spacing" textLength="124" x="110.5" y="248.1826">void createTask()</text><rect fill="#F24D5C" height="6" style="stroke:#C82930;stroke-width:1.0;" width="6" x="98.5" y="258.1328"/><text fill="#000000" font-family="sans-serif" font-size="14" lengthAdjust="spacing" textLength="128" x="110.5" y="264.4795">void updateTask()</text><rect fill="#F24D5C" height="6" style="stroke:#C82930;stroke-width:1.0;" width="6" x="98.5" y="274.4297"/><text fill="#000000" font-family="sans-serif" font-size="14" lengthAdjust="spacing" textLength="124" x="110.5" y="280.7764">void deteleTask()</text><rect fill="#F24D5C" height="6" style="stroke:#C82930;stroke-width:1.0;" width="6" x="98.5" y="290.7266"/><text fill="#000000" font-family="sans-serif" font-size="14" lengthAdjust="spacing" textLength="138" x="110.5" y="297.0732">void setDoneTask()</text><rect fill="#F24D5C" height="6" style="stroke:#C82930;stroke-width:1.0;" width="6" x="98.5" y="307.0234"/><text fill="#000000" font-family="sans-serif" font-size="14" lengthAdjust="spacing" textLength="134" x="110.5" y="313.3701">void displayTasks()</text></g><!--class Priority--><g id="elem_Priority"><rect codeLine="16" fill="#FEFECE" filter="url(#f20hfcyi5udyu)" height="96.8906" id="Priority" style="stroke:#A80036;stroke-width:1.0;" width="85" x="342" y="182.7969"/><ellipse cx="357" cy="198.7969" fill="#EB937F" rx="11" ry="11" style="stroke:#A80036;stroke-width:1.0;"/><path d="M355.7969,199.6719 L357.25,199.6719 L357.25,199.7813 C357.25,200.1875 357.2813,200.3438 357.3594,200.5 C357.5156,200.75 357.7969,200.9063 358.0938,200.9063 C358.3438,200.9063 358.6094,200.7656 358.7656,200.5469 C358.8906,200.3906 358.9219,200.2344 358.9219,199.7813 L358.9219,197.8594 C358.9219,197.7031 358.9219,197.6563 358.9063,197.5 C358.8438,197.0313 358.5313,196.7188 358.0781,196.7188 C357.8281,196.7188 357.5625,196.8594 357.3906,197.0781 C357.2813,197.25 357.25,197.4063 357.25,197.8594 L357.25,197.9844 L355.7969,197.9844 L355.7969,195.5781 L359.7813,195.5781 L359.7813,196.4375 C359.7813,196.8438 359.8125,197.0156 359.8906,197.1719 C360.0625,197.4219 360.3438,197.5781 360.625,197.5781 C360.8906,197.5781 361.1563,197.4375 361.3281,197.2188 C361.4375,197.0469 361.4688,196.9063 361.4688,196.4375 L361.4688,193.8906 L353.8438,193.8906 C353.4063,193.8906 353.2813,193.9063 353.125,194 C352.875,194.1563 352.7188,194.4531 352.7188,194.7344 C352.7188,195.0156 352.8594,195.2656 353.0781,195.4375 C353.2344,195.5469 353.4219,195.5781 353.8438,195.5781 L354.0938,195.5781 L354.0938,202.0938 L353.8438,202.0938 C353.4375,202.0938 353.2813,202.1094 353.125,202.2188 C352.875,202.3906 352.7188,202.6563 352.7188,202.9531 C352.7188,203.2188 352.8594,203.4688 353.0781,203.625 C353.2188,203.75 353.4531,203.7969 353.8438,203.7969 L361.8438,203.7969 L361.8438,201.2188 C361.8438,200.7813 361.8125,200.6406 361.7344,200.4844 C361.5625,200.2344 361.2813,200.0781 361,200.0781 C360.7344,200.0781 360.4688,200.1875 360.2969,200.4375 C360.1875,200.5938 360.1563,200.7344 360.1563,201.2188 L360.1563,202.0938 L355.7969,202.0938 L355.7969,199.6719 Z " fill="#000000"/><text fill="#000000" font-family="sans-serif" font-size="14" lengthAdjust="spacing" textLength="53" x="371" y="203.6436">Priority</text><line style="stroke:#A80036;stroke-width:1.0;" x1="343" x2="426" y1="214.7969" y2="214.7969"/><text fill="#000000" font-family="sans-serif" font-size="14" lengthAdjust="spacing" textLength="24" x="348" y="231.792">low</text><text fill="#000000" font-family="sans-serif" font-size="14" lengthAdjust="spacing" textLength="58" x="348" y="248.0889">medium</text><text fill="#000000" font-family="sans-serif" font-size="14" lengthAdjust="spacing" textLength="31" x="348" y="264.3857">high</text><line style="stroke:#A80036;stroke-width:1.0;" x1="343" x2="426" y1="271.6875" y2="271.6875"/></g><!--class Task--><g id="elem_Task"><rect codeLine="22" fill="#FEFECE" filter="url(#f20hfcyi5udyu)" height="373.9375" id="Task" style="stroke:#A80036;stroke-width:1.0;" width="396" x="462.5" y="44.2969"/><ellipse cx="639.75" cy="60.2969" fill="#ADD1B2" rx="11" ry="11" style="stroke:#A80036;stroke-width:1.0;"/><path d="M642.0938,55.9688 C641.1563,55.5313 640.5625,55.3906 639.6875,55.3906 C637.0625,55.3906 635.0625,57.4688 635.0625,60.1875 L635.0625,61.3125 C635.0625,63.8906 637.1719,65.7813 640.0625,65.7813 C641.2813,65.7813 642.4375,65.4844 643.1875,64.9375 C643.7656,64.5313 644.0938,64.0781 644.0938,63.6875 C644.0938,63.2344 643.7031,62.8438 643.2344,62.8438 C643.0156,62.8438 642.8125,62.9219 642.625,63.1094 C642.1719,63.5938 642.1719,63.5938 641.9844,63.6875 C641.5625,63.9531 640.875,64.0781 640.1094,64.0781 C638.0625,64.0781 636.7656,62.9844 636.7656,61.2813 L636.7656,60.1875 C636.7656,58.4063 638.0156,57.0938 639.75,57.0938 C640.3281,57.0938 640.9375,57.25 641.4063,57.5 C641.8906,57.7813 642.0625,58 642.1563,58.4063 C642.2188,58.8125 642.25,58.9375 642.3906,59.0625 C642.5313,59.2031 642.7656,59.3125 642.9844,59.3125 C643.25,59.3125 643.5156,59.1719 643.6875,58.9531 C643.7969,58.7969 643.8281,58.6094 643.8281,58.1875 L643.8281,56.7656 C643.8281,56.3281 643.8125,56.2031 643.7188,56.0469 C643.5625,55.7813 643.2813,55.6406 642.9844,55.6406 C642.6875,55.6406 642.4844,55.7344 642.2656,56.0469 L642.0938,55.9688 Z " fill="#000000"/><text fill="#000000" font-family="sans-serif" font-size="14" lengthAdjust="spacing" textLength="33" x="660.25" y="65.1436">Task</text><line style="stroke:#A80036;stroke-width:1.0;" x1="463.5" x2="857.5" y1="76.2969" y2="76.2969"/><rect fill="none" height="6" style="stroke:#C82930;stroke-width:1.0;" width="6" x="470.5" y="86.9453"/><text fill="#000000" font-family="sans-serif" font-size="14" lengthAdjust="spacing" textLength="50" x="482.5" y="93.292">UUID id</text><rect fill="none" height="6" style="stroke:#C82930;stroke-width:1.0;" width="6" x="470.5" y="103.2422"/><text fill="#000000" font-family="sans-serif" font-size="14" lengthAdjust="spacing" textLength="79" x="482.5" y="109.5889">String title</text><rect fill="none" height="6" style="stroke:#C82930;stroke-width:1.0;" width="6" x="470.5" y="119.5391"/><text fill="#000000" font-family="sans-serif" font-size="14" lengthAdjust="spacing" textLength="130" x="482.5" y="125.8857">String description</text><rect fill="none" height="6" style="stroke:#C82930;stroke-width:1.0;" width="6" x="470.5" y="135.8359"/><text fill="#000000" font-family="sans-serif" font-size="14" lengthAdjust="spacing" textLength="111" x="482.5" y="142.1826">Priority priority</text><rect fill="none" height="6" style="stroke:#C82930;stroke-width:1.0;" width="6" x="470.5" y="152.1328"/><text fill="#000000" font-family="sans-serif" font-size="14" lengthAdjust="spacing" textLength="98" x="482.5" y="158.4795">Boolean done</text><rect fill="none" height="6" style="stroke:#C82930;stroke-width:1.0;" width="6" x="470.5" y="168.4297"/><text fill="#000000" font-family="sans-serif" font-size="14" lengthAdjust="spacing" textLength="121" x="482.5" y="174.7764">Date createDate</text><line style="stroke:#A80036;stroke-width:1.0;" x1="463.5" x2="857.5" y1="182.0781" y2="182.0781"/><ellipse cx="473.5" cy="195.7266" fill="#84BE84" rx="3" ry="3" style="stroke:#038048;stroke-width:1.0;"/><text fill="#000000" font-family="sans-serif" font-size="14" lengthAdjust="spacing" textLength="77" x="482.5" y="199.0732">void Task()</text><ellipse cx="473.5" cy="212.0234" fill="#84BE84" rx="3" ry="3" style="stroke:#038048;stroke-width:1.0;"/><text fill="#000000" font-family="sans-serif" font-size="14" lengthAdjust="spacing" textLength="370" x="482.5" y="215.3701">void Task(UUID id, String title, ... , Date createDate)</text><ellipse cx="473.5" cy="228.3203" fill="#84BE84" rx="3" ry="3" style="stroke:#038048;stroke-width:1.0;"/><text fill="#000000" font-family="sans-serif" font-size="14" lengthAdjust="spacing" textLength="130" x="482.5" y="231.667">void setId(UUID id)</text><ellipse cx="473.5" cy="244.6172" fill="#84BE84" rx="3" ry="3" style="stroke:#038048;stroke-width:1.0;"/><text fill="#000000" font-family="sans-serif" font-size="14" lengthAdjust="spacing" textLength="85" x="482.5" y="247.9639">UUID getId()</text><ellipse cx="473.5" cy="260.9141" fill="#84BE84" rx="3" ry="3" style="stroke:#038048;stroke-width:1.0;"/><text fill="#000000" font-family="sans-serif" font-size="14" lengthAdjust="spacing" textLength="179" x="482.5" y="264.2607">void setTitle(String title)</text><ellipse cx="473.5" cy="277.2109" fill="#84BE84" rx="3" ry="3" style="stroke:#038048;stroke-width:1.0;"/><text fill="#000000" font-family="sans-serif" font-size="14" lengthAdjust="spacing" textLength="116" x="482.5" y="280.5576">String getTtile()</text><ellipse cx="473.5" cy="293.5078" fill="#84BE84" rx="3" ry="3" style="stroke:#038048;stroke-width:1.0;"/><text fill="#000000" font-family="sans-serif" font-size="14" lengthAdjust="spacing" textLength="281" x="482.5" y="296.8545">void setDescription(String description)</text><ellipse cx="473.5" cy="309.8047" fill="#84BE84" rx="3" ry="3" style="stroke:#038048;stroke-width:1.0;"/><text fill="#000000" font-family="sans-serif" font-size="14" lengthAdjust="spacing" textLength="177" x="482.5" y="313.1514">String getDescpription()</text><ellipse cx="473.5" cy="326.1016" fill="#84BE84" rx="3" ry="3" style="stroke:#038048;stroke-width:1.0;"/><text fill="#000000" font-family="sans-serif" font-size="14" lengthAdjust="spacing" textLength="231" x="482.5" y="329.4482">void setPriority(Priority priority)</text><ellipse cx="473.5" cy="342.3984" fill="#84BE84" rx="3" ry="3" style="stroke:#038048;stroke-width:1.0;"/><text fill="#000000" font-family="sans-serif" font-size="14" lengthAdjust="spacing" textLength="145" x="482.5" y="345.7451">Priority getPriority()</text><ellipse cx="473.5" cy="358.6953" fill="#84BE84" rx="3" ry="3" style="stroke:#038048;stroke-width:1.0;"/><text fill="#000000" font-family="sans-serif" font-size="14" lengthAdjust="spacing" textLength="203" x="482.5" y="362.042">void setDone(Boolean done)</text><ellipse cx="473.5" cy="374.9922" fill="#84BE84" rx="3" ry="3" style="stroke:#038048;stroke-width:1.0;"/><text fill="#000000" font-family="sans-serif" font-size="14" lengthAdjust="spacing" textLength="121" x="482.5" y="378.3389">Boolean isDone()</text><ellipse cx="473.5" cy="391.2891" fill="#84BE84" rx="3" ry="3" style="stroke:#038048;stroke-width:1.0;"/><text fill="#000000" font-family="sans-serif" font-size="14" lengthAdjust="spacing" textLength="223" x="482.5" y="394.6357">void setDate(Date createDate)</text><ellipse cx="473.5" cy="407.5859" fill="#84BE84" rx="3" ry="3" style="stroke:#038048;stroke-width:1.0;"/><text fill="#000000" font-family="sans-serif" font-size="14" lengthAdjust="spacing" textLength="109" x="482.5" y="410.9326">Date getDate()</text></g><!--class TaskManager--><g id="elem_TaskManager"><rect codeLine="45" fill="#FEFECE" filter="url(#f20hfcyi5udyu)" height="259.8594" id="TaskManager" style="stroke:#A80036;stroke-width:1.0;" width="383" x="7" y="495.2969"/><ellipse cx="147.25" cy="511.2969" fill="#ADD1B2" rx="11" ry="11" style="stroke:#A80036;stroke-width:1.0;"/><path d="M149.5938,506.9688 C148.6563,506.5313 148.0625,506.3906 147.1875,506.3906 C144.5625,506.3906 142.5625,508.4688 142.5625,511.1875 L142.5625,512.3125 C142.5625,514.8906 144.6719,516.7813 147.5625,516.7813 C148.7813,516.7813 149.9375,516.4844 150.6875,515.9375 C151.2656,515.5313 151.5938,515.0781 151.5938,514.6875 C151.5938,514.2344 151.2031,513.8438 150.7344,513.8438 C150.5156,513.8438 150.3125,513.9219 150.125,514.1094 C149.6719,514.5938 149.6719,514.5938 149.4844,514.6875 C149.0625,514.9531 148.375,515.0781 147.6094,515.0781 C145.5625,515.0781 144.2656,513.9844 144.2656,512.2813 L144.2656,511.1875 C144.2656,509.4063 145.5156,508.0938 147.25,508.0938 C147.8281,508.0938 148.4375,508.25 148.9063,508.5 C149.3906,508.7813 149.5625,509 149.6563,509.4063 C149.7188,509.8125 149.75,509.9375 149.8906,510.0625 C150.0313,510.2031 150.2656,510.3125 150.4844,510.3125 C150.75,510.3125 151.0156,510.1719 151.1875,509.9531 C151.2969,509.7969 151.3281,509.6094 151.3281,509.1875 L151.3281,507.7656 C151.3281,507.3281 151.3125,507.2031 151.2188,507.0469 C151.0625,506.7813 150.7813,506.6406 150.4844,506.6406 C150.1875,506.6406 149.9844,506.7344 149.7656,507.0469 L149.5938,506.9688 Z " fill="#000000"/><text fill="#000000" font-family="sans-serif" font-size="14" lengthAdjust="spacing" textLength="94" x="167.75" y="516.1436">TaskManager</text><line style="stroke:#A80036;stroke-width:1.0;" x1="8" x2="389" y1="527.2969" y2="527.2969"/><rect fill="none" height="6" style="stroke:#C82930;stroke-width:1.0;" width="6" x="15" y="537.9453"/><text fill="#000000" font-family="sans-serif" font-size="14" lengthAdjust="spacing" textLength="226" x="27" y="544.292">TaskRepository taskRepository</text><rect fill="none" height="6" style="stroke:#C82930;stroke-width:1.0;" width="6" x="15" y="554.2422"/><text fill="#000000" font-family="sans-serif" font-size="14" lengthAdjust="spacing" textLength="257" x="27" y="560.5889">Map&lt;String, List&lt;Task&gt;&gt; tasksMap</text><line style="stroke:#A80036;stroke-width:1.0;" x1="8" x2="389" y1="567.8906" y2="567.8906"/><ellipse cx="18" cy="581.5391" fill="#84BE84" rx="3" ry="3" style="stroke:#038048;stroke-width:1.0;"/><text fill="#000000" font-family="sans-serif" font-size="14" lengthAdjust="spacing" textLength="254" x="27" y="584.8857">void TaskManager() //load tasksMap</text><ellipse cx="18" cy="597.8359" fill="#84BE84" rx="3" ry="3" style="stroke:#038048;stroke-width:1.0;"/><text fill="#000000" font-family="sans-serif" font-size="14" lengthAdjust="spacing" textLength="249" x="27" y="601.1826">void create(Task task, String type)</text><ellipse cx="18" cy="614.1328" fill="#84BE84" rx="3" ry="3" style="stroke:#038048;stroke-width:1.0;"/><text fill="#000000" font-family="sans-serif" font-size="14" lengthAdjust="spacing" textLength="163" x="27" y="617.4795">void update(Task task)</text><ellipse cx="18" cy="630.4297" fill="#84BE84" rx="3" ry="3" style="stroke:#038048;stroke-width:1.0;"/><text fill="#000000" font-family="sans-serif" font-size="14" lengthAdjust="spacing" textLength="169" x="27" y="633.7764">Boolean delete(UUID id)</text><ellipse cx="18" cy="646.7266" fill="#84BE84" rx="3" ry="3" style="stroke:#038048;stroke-width:1.0;"/><text fill="#000000" font-family="sans-serif" font-size="14" lengthAdjust="spacing" textLength="138" x="27" y="650.0732">List&lt;Task&gt; getAll()</text><ellipse cx="18" cy="663.0234" fill="#84BE84" rx="3" ry="3" style="stroke:#038048;stroke-width:1.0;"/><text fill="#000000" font-family="sans-serif" font-size="14" lengthAdjust="spacing" textLength="116" x="27" y="666.3701">void saveTasks()</text><ellipse cx="18" cy="679.3203" fill="#84BE84" rx="3" ry="3" style="stroke:#038048;stroke-width:1.0;"/><text fill="#000000" font-family="sans-serif" font-size="14" lengthAdjust="spacing" textLength="183" x="27" y="682.667">Boolean setDone(UUID id)</text><ellipse cx="18" cy="695.6172" fill="#84BE84" rx="3" ry="3" style="stroke:#038048;stroke-width:1.0;"/><text fill="#000000" font-family="sans-serif" font-size="14" lengthAdjust="spacing" textLength="220" x="27" y="698.9639">List&lt;Task&gt; getBy(String type)</text><ellipse cx="18" cy="711.9141" fill="#84BE84" rx="3" ry="3" style="stroke:#038048;stroke-width:1.0;"/><text fill="#000000" font-family="sans-serif" font-size="14" lengthAdjust="spacing" textLength="339" x="27" y="715.2607">List&lt;Task&gt; getBy(Priority priority, String type)</text><ellipse cx="18" cy="728.2109" fill="#84BE84" rx="3" ry="3" style="stroke:#038048;stroke-width:1.0;"/><text fill="#000000" font-family="sans-serif" font-size="14" lengthAdjust="spacing" textLength="326" x="27" y="731.5576">List&lt;Task&gt; getBy(Boolean done, String type)</text><ellipse cx="18" cy="744.5078" fill="#84BE84" rx="3" ry="3" style="stroke:#038048;stroke-width:1.0;"/><text fill="#000000" font-family="sans-serif" font-size="14" lengthAdjust="spacing" textLength="357" x="27" y="747.8545">List&lt;Task&gt; getOlderTban(Date date, String type)</text></g><!--class TaskRepository--><g id="elem_TaskRepository"><rect codeLine="62" fill="#FEFECE" filter="url(#f20hfcyi5udyu)" height="80.5938" id="TaskRepository" style="stroke:#A80036;stroke-width:1.0;" width="322" x="37.5" y="832.2969"/><ellipse cx="138.25" cy="848.2969" fill="#ADD1B2" rx="11" ry="11" style="stroke:#A80036;stroke-width:1.0;"/><path d="M140.5938,843.9688 C139.6563,843.5313 139.0625,843.3906 138.1875,843.3906 C135.5625,843.3906 133.5625,845.4688 133.5625,848.1875 L133.5625,849.3125 C133.5625,851.8906 135.6719,853.7813 138.5625,853.7813 C139.7813,853.7813 140.9375,853.4844 141.6875,852.9375 C142.2656,852.5313 142.5938,852.0781 142.5938,851.6875 C142.5938,851.2344 142.2031,850.8438 141.7344,850.8438 C141.5156,850.8438 141.3125,850.9219 141.125,851.1094 C140.6719,851.5938 140.6719,851.5938 140.4844,851.6875 C140.0625,851.9531 139.375,852.0781 138.6094,852.0781 C136.5625,852.0781 135.2656,850.9844 135.2656,849.2813 L135.2656,848.1875 C135.2656,846.4063 136.5156,845.0938 138.25,845.0938 C138.8281,845.0938 139.4375,845.25 139.9063,845.5 C140.3906,845.7813 140.5625,846 140.6563,846.4063 C140.7188,846.8125 140.75,846.9375 140.8906,847.0625 C141.0313,847.2031 141.2656,847.3125 141.4844,847.3125 C141.75,847.3125 142.0156,847.1719 142.1875,846.9531 C142.2969,846.7969 142.3281,846.6094 142.3281,846.1875 L142.3281,844.7656 C142.3281,844.3281 142.3125,844.2031 142.2188,844.0469 C142.0625,843.7813 141.7813,843.6406 141.4844,843.6406 C141.1875,843.6406 140.9844,843.7344 140.7656,844.0469 L140.5938,843.9688 Z " fill="#000000"/><text fill="#000000" font-family="sans-serif" font-size="14" lengthAdjust="spacing" textLength="112" x="158.75" y="853.1436">TaskRepository</text><line style="stroke:#A80036;stroke-width:1.0;" x1="38.5" x2="358.5" y1="864.2969" y2="864.2969"/><line style="stroke:#A80036;stroke-width:1.0;" x1="38.5" x2="358.5" y1="872.2969" y2="872.2969"/><ellipse cx="48.5" cy="885.9453" fill="#84BE84" rx="3" ry="3" style="stroke:#038048;stroke-width:1.0;"/><text fill="#000000" font-family="sans-serif" font-size="14" lengthAdjust="spacing" textLength="225" x="57.5" y="889.292">Map&lt;String,List&lt;Task&gt;&gt; load()</text><ellipse cx="48.5" cy="902.2422" fill="#84BE84" rx="3" ry="3" style="stroke:#038048;stroke-width:1.0;"/><text fill="#000000" font-family="sans-serif" font-size="14" lengthAdjust="spacing" textLength="296" x="57.5" y="905.5889">void save(Map&lt;String, List&lt;Task&gt;&gt; task)</text></g><!--reverse link App to TaskManager--><g id="link_App_TaskManager"><path codeLine="67" d="M198.5,332.7579 C198.5,384.2439 198.5,438.0679 198.5,495.2499 " fill="none" id="App-backto-TaskManager" style="stroke:#A80036;stroke-width:1.0;"/><polygon fill="#A80036" points="198.5,320.7579,194.5,326.7579,198.5,332.7579,202.5,326.7579,198.5,320.7579" style="stroke:#A80036;stroke-width:1.0;"/><text fill="#000000" font-family="sans-serif" font-size="13" lengthAdjust="spacing" textLength="54" x="199.5" y="461.3638">contains</text></g><!--reverse link TaskManager to TaskRepository--><g id="link_TaskManager_TaskRepository"><path codeLine="68" d="M198.5,767.5169 C198.5,795.4719 198.5,810.9779 198.5,832.2146 " fill="none" id="TaskManager-backto-TaskRepository" style="stroke:#A80036;stroke-width:1.0;"/><polygon fill="#A80036" points="198.5,755.5169,194.5,761.5169,198.5,767.5169,202.5,761.5169,198.5,755.5169" style="stroke:#A80036;stroke-width:1.0;"/><text fill="#000000" font-family="sans-serif" font-size="13" lengthAdjust="spacing" textLength="54" x="199.5" y="798.3638">contains</text></g><!--SRC=[XLJ1Rjim3BtxAtXKrYIz3qM1ThuKM91XSpz0YmINg2m9ajB16FRl4sKxbgAkknZKuoD5FjBohwZ16I-R9c1G4hfZU_J0hOKTV57SUsYHzuuFJNDAnuVe-jq0x3hkNmzSyruw2AiTNJVmPb30m56p3L6diq1l5HyFKfzp-EGa3vAovUZPYdTG8ODK5UfbQ8skoTDz1Fk8_scQUFC0tnmQXs5CNIZpAtu7AV0yHEC5-nSYJgrIP6hr-Vcf1HHa_WWETGz9hEmif3yvj06D9lHoXvqD0X-DKP9h4B5MEhUnmRbxCacuLFUbZ-muLx25_FujxFTxsC9LeZKq2lCabjW49xjFS47hA1_BaoVt3CI0Bc0a537jsZEhPRYA9x9Ts4MQHIjMYPPe5xJFg6KTKK-MYvky2u0- -Sk8g19xJxM4zJDXKsx2lD-NtVykhV4OZ1lJ-gz78XoulPkQty9NzE6E8kxl4zD7Pp7TEJFRmEsjCbpKhAbCHkJaNFTWjDcyfvzcfHL2YFZdH6U-3MjbrFI3KhbC_4qklqwMPT7xtsaUHtPTN4MeHbqtLCNa4_uV_QY4TDrFhgSfaofLI3dTTNmqu9jiVlduQ3fN6h6FHfrMY5xCJxjTFkhFS38wnFVHD_apkh2orLgPVm40]--></g></svg>